<svg width="227" height="50" viewBox="0 0 227 50" fill="none" xmlns="http://www.w3.org/2000/svg">
<rect width="227" height="50" rx="6" fill="#262626"/>
<g clip-path="url(#clip0_7364_5623)">
<mask id="mask0_7364_5623" style="mask-type:luminance" maskUnits="userSpaceOnUse" x="16" y="8" width="33" height="34">
<path d="M45.0597 8H19.9403C17.7641 8 16 9.76491 16 11.942V38.058C16 40.2351 17.7641 42 19.9403 42H45.0597C47.2359 42 49 40.2351 49 38.058V11.942C49 9.76491 47.2359 8 45.0597 8Z" fill="white"/>
</mask>
<g mask="url(#mask0_7364_5623)">
<path d="M48.0272 54.1833H16.9728C16.431 54.1833 16 53.7522 16 53.2101V8.97319C16 8.43116 16.431 8 16.9728 8H48.0272C48.569 8 49 8.43116 49 8.97319V53.2101C49 53.7399 48.569 54.1833 48.0272 54.1833Z" fill="#262626"/>
<path d="M44.555 18.6805C44.555 18.3232 44.2964 17.8798 43.9886 17.7073L33.0543 11.4001C32.7464 11.2153 32.2416 11.2153 31.9337 11.4001L21.0117 17.7073C20.7039 17.8798 20.4453 18.3232 20.4453 18.6805V31.3073C20.4453 31.6646 20.7039 32.108 21.0117 32.2805L31.9461 38.5877C32.2539 38.7602 32.7587 38.7602 33.0666 38.5877L44.0009 32.2805C44.3087 32.108 44.5673 31.6646 44.5673 31.3073L44.555 18.6805Z" fill="white"/>
<path d="M38.2499 24.8029L35.3809 29.0159L33.9033 26.7615L35.6025 24.2239C35.9227 23.7681 36.5876 22.5362 35.8119 20.8362C35.1839 19.4565 33.8171 18.7913 32.6104 18.7913C31.416 18.7913 30.0984 19.4072 29.4089 20.8362C28.6208 22.4623 29.3104 23.7558 29.6059 24.1746C29.6059 24.1746 30.5417 25.5543 31.3421 26.7246L32.6227 28.5724L34.5436 31.5166C34.5559 31.5413 34.8637 32.0094 35.4055 32.0094C35.9227 32.0094 36.2305 31.5536 36.2675 31.492L40.7742 24.8275H38.2499V24.8029ZM32.5981 24.9014C32.5981 24.9014 31.847 23.7558 31.3544 22.9673C30.8373 22.1173 31.416 20.8362 32.5981 20.8362C33.7802 20.8362 34.3589 22.105 33.8417 22.9673C33.3492 23.7681 32.5981 24.9014 32.5981 24.9014Z" fill="url(#paint0_radial_7364_5623)"/>
<path d="M29.8284 28.868L27.0086 24.9014C27.0086 24.9014 26.2575 23.7557 25.765 22.955C25.2478 22.105 25.8265 20.8238 27.0086 20.8238C27.1564 20.8238 27.2918 20.8485 27.4273 20.8854L28.4247 19.0623C27.9691 18.8652 27.4888 18.7666 27.0332 18.7666C25.8388 18.7666 24.5213 19.3825 23.8317 20.8115C23.0437 22.4376 23.7332 23.7311 24.0288 24.1499L28.9664 31.455C29.0034 31.5166 29.3235 31.9847 29.8407 31.9847C30.3702 31.9847 30.6657 31.5289 30.7026 31.4796L32.1926 29.213L30.912 27.3282L29.8284 28.868Z" fill="url(#paint1_radial_7364_5623)"/>
</g>
</g>
<path d="M59.1016 18.625H60.8516L64.1406 27.3984L67.4219 18.625H69.1719L64.8281 30H63.4375L59.1016 18.625ZM58.3047 18.625H59.9688L60.2578 26.2188V30H58.3047V18.625ZM68.3047 18.625H69.9766V30H68.0156V26.2188L68.3047 18.625ZM74.6328 21.5469V30H72.7422V21.5469H74.6328ZM72.6172 19.3281C72.6172 19.0417 72.7109 18.8047 72.8984 18.6172C73.0911 18.4245 73.3568 18.3281 73.6953 18.3281C74.0286 18.3281 74.2917 18.4245 74.4844 18.6172C74.6771 18.8047 74.7734 19.0417 74.7734 19.3281C74.7734 19.6094 74.6771 19.8438 74.4844 20.0312C74.2917 20.2188 74.0286 20.3125 73.6953 20.3125C73.3568 20.3125 73.0911 20.2188 72.8984 20.0312C72.7109 19.8438 72.6172 19.6094 72.6172 19.3281ZM81.0703 21.5469V22.9219H76.3047V21.5469H81.0703ZM77.6797 19.4766H79.5625V27.6641C79.5625 27.9245 79.599 28.125 79.6719 28.2656C79.75 28.401 79.8568 28.4922 79.9922 28.5391C80.1276 28.5859 80.2865 28.6094 80.4688 28.6094C80.599 28.6094 80.724 28.6016 80.8438 28.5859C80.9635 28.5703 81.0599 28.5547 81.1328 28.5391L81.1406 29.9766C80.9844 30.0234 80.8021 30.0651 80.5938 30.1016C80.3906 30.138 80.1562 30.1562 79.8906 30.1562C79.4583 30.1562 79.0755 30.0807 78.7422 29.9297C78.4089 29.7734 78.1484 29.5208 77.9609 29.1719C77.7734 28.8229 77.6797 28.3594 77.6797 27.7812V19.4766ZM92 18.625V30H90.0547V18.625H92ZM95.5703 18.625V20.1875H86.5156V18.625H95.5703ZM100.547 27.4453L102.812 18.625H104L103.867 20.8984L101.445 30H100.211L100.547 27.4453ZM98.8516 18.625L100.688 27.375L100.852 30H99.5391L96.9062 18.625H98.8516ZM106.57 27.3516L108.383 18.625H110.336L107.703 30H106.391L106.57 27.3516ZM104.461 18.625L106.703 27.4688L107.031 30H105.797L103.414 20.8984L103.289 18.625H104.461ZM114.383 18.625V30H112.422V18.625H114.383ZM126.344 18.625V30H124.383L119.281 21.8516V30H117.32V18.625H119.281L124.398 26.7891V18.625H126.344ZM133.625 18.625V30H131.68V18.625H133.625ZM137.195 18.625V20.1875H128.141V18.625H137.195ZM143.125 18H145.008V28.1953L144.828 30H143.125V18ZM150.523 25.6953V25.8594C150.523 26.4844 150.453 27.0599 150.312 27.5859C150.177 28.1068 149.969 28.5599 149.688 28.9453C149.411 29.3307 149.068 29.6302 148.656 29.8438C148.25 30.0521 147.779 30.1562 147.242 30.1562C146.716 30.1562 146.258 30.0573 145.867 29.8594C145.477 29.6615 145.148 29.3802 144.883 29.0156C144.622 28.651 144.411 28.2161 144.25 27.7109C144.089 27.2057 143.974 26.6484 143.906 26.0391V25.5156C143.974 24.901 144.089 24.3438 144.25 23.8438C144.411 23.3385 144.622 22.9036 144.883 22.5391C145.148 22.1693 145.474 21.8854 145.859 21.6875C146.25 21.4896 146.706 21.3906 147.227 21.3906C147.768 21.3906 148.245 21.4948 148.656 21.7031C149.073 21.9115 149.419 22.2083 149.695 22.5938C149.971 22.974 150.177 23.4271 150.312 23.9531C150.453 24.4792 150.523 25.0599 150.523 25.6953ZM148.641 25.8594V25.6953C148.641 25.3151 148.609 24.9583 148.547 24.625C148.484 24.2865 148.38 23.9896 148.234 23.7344C148.094 23.4792 147.901 23.2786 147.656 23.1328C147.417 22.9818 147.117 22.9062 146.758 22.9062C146.424 22.9062 146.138 22.9635 145.898 23.0781C145.659 23.1927 145.458 23.349 145.297 23.5469C145.135 23.7448 145.008 23.974 144.914 24.2344C144.826 24.4948 144.766 24.776 144.734 25.0781V26.4922C144.781 26.8828 144.88 27.2422 145.031 27.5703C145.188 27.8932 145.406 28.1536 145.688 28.3516C145.969 28.5443 146.331 28.6406 146.773 28.6406C147.122 28.6406 147.417 28.5703 147.656 28.4297C147.896 28.2891 148.086 28.0938 148.227 27.8438C148.372 27.5885 148.477 27.2917 148.539 26.9531C148.607 26.6146 148.641 26.25 148.641 25.8594ZM156.344 30.1562C155.719 30.1562 155.154 30.0547 154.648 29.8516C154.148 29.6432 153.721 29.3542 153.367 28.9844C153.018 28.6146 152.75 28.1797 152.562 27.6797C152.375 27.1797 152.281 26.6406 152.281 26.0625V25.75C152.281 25.0885 152.378 24.4896 152.57 23.9531C152.763 23.4167 153.031 22.9583 153.375 22.5781C153.719 22.1927 154.125 21.8984 154.594 21.6953C155.062 21.4922 155.57 21.3906 156.117 21.3906C156.721 21.3906 157.25 21.4922 157.703 21.6953C158.156 21.8984 158.531 22.1849 158.828 22.5547C159.13 22.9193 159.354 23.3542 159.5 23.8594C159.651 24.3646 159.727 24.9219 159.727 25.5312V26.3359H153.195V24.9844H157.867V24.8359C157.857 24.4974 157.789 24.1797 157.664 23.8828C157.544 23.5859 157.359 23.3464 157.109 23.1641C156.859 22.9818 156.526 22.8906 156.109 22.8906C155.797 22.8906 155.518 22.9583 155.273 23.0938C155.034 23.224 154.833 23.4141 154.672 23.6641C154.51 23.9141 154.385 24.2161 154.297 24.5703C154.214 24.9193 154.172 25.3125 154.172 25.75V26.0625C154.172 26.4323 154.221 26.776 154.32 27.0938C154.424 27.4062 154.576 27.6797 154.773 27.9141C154.971 28.1484 155.211 28.3333 155.492 28.4688C155.773 28.599 156.094 28.6641 156.453 28.6641C156.906 28.6641 157.31 28.5729 157.664 28.3906C158.018 28.2083 158.326 27.9505 158.586 27.6172L159.578 28.5781C159.396 28.8438 159.159 29.099 158.867 29.3438C158.576 29.5833 158.219 29.7786 157.797 29.9297C157.38 30.0807 156.896 30.1562 156.344 30.1562ZM168.234 28.5V30H161.938V28.5H168.234ZM168.062 22.7188L162.578 30H161.359V28.7891L166.812 21.5469H168.062V22.7188ZM167.336 21.5469V23.0469H161.453V21.5469H167.336ZM175.008 28.3047V24.2734C175.008 23.9714 174.953 23.7109 174.844 23.4922C174.734 23.2734 174.568 23.1042 174.344 22.9844C174.125 22.8646 173.849 22.8047 173.516 22.8047C173.208 22.8047 172.943 22.8568 172.719 22.9609C172.495 23.0651 172.32 23.2057 172.195 23.3828C172.07 23.5599 172.008 23.7604 172.008 23.9844H170.133C170.133 23.651 170.214 23.3281 170.375 23.0156C170.536 22.7031 170.771 22.4245 171.078 22.1797C171.385 21.9349 171.753 21.7422 172.18 21.6016C172.607 21.4609 173.086 21.3906 173.617 21.3906C174.253 21.3906 174.815 21.4974 175.305 21.7109C175.799 21.9245 176.188 22.2474 176.469 22.6797C176.755 23.1068 176.898 23.6432 176.898 24.2891V28.0469C176.898 28.4323 176.924 28.7786 176.977 29.0859C177.034 29.388 177.115 29.651 177.219 29.875V30H175.289C175.201 29.7969 175.13 29.5391 175.078 29.2266C175.031 28.9089 175.008 28.6016 175.008 28.3047ZM175.281 24.8594L175.297 26.0234H173.945C173.596 26.0234 173.289 26.0573 173.023 26.125C172.758 26.1875 172.536 26.2812 172.359 26.4062C172.182 26.5312 172.049 26.6823 171.961 26.8594C171.872 27.0365 171.828 27.237 171.828 27.4609C171.828 27.6849 171.88 27.8906 171.984 28.0781C172.089 28.2604 172.24 28.4036 172.438 28.5078C172.641 28.612 172.885 28.6641 173.172 28.6641C173.557 28.6641 173.893 28.5859 174.18 28.4297C174.471 28.2682 174.701 28.0729 174.867 27.8438C175.034 27.6094 175.122 27.388 175.133 27.1797L175.742 28.0156C175.68 28.2292 175.573 28.4583 175.422 28.7031C175.271 28.9479 175.073 29.1823 174.828 29.4062C174.589 29.625 174.299 29.8047 173.961 29.9453C173.628 30.0859 173.242 30.1562 172.805 30.1562C172.253 30.1562 171.76 30.0469 171.328 29.8281C170.896 29.6042 170.557 29.3047 170.312 28.9297C170.068 28.5495 169.945 28.1198 169.945 27.6406C169.945 27.1927 170.029 26.7969 170.195 26.4531C170.367 26.1042 170.617 25.8125 170.945 25.5781C171.279 25.3438 171.685 25.1667 172.164 25.0469C172.643 24.9219 173.19 24.8594 173.805 24.8594H175.281ZM181.227 18V30H179.352V18H181.227ZM180.898 25.4609L180.289 25.4531C180.294 24.8698 180.375 24.3307 180.531 23.8359C180.693 23.3411 180.917 22.9115 181.203 22.5469C181.495 22.1771 181.844 21.8932 182.25 21.6953C182.656 21.4922 183.107 21.3906 183.602 21.3906C184.018 21.3906 184.393 21.4479 184.727 21.5625C185.065 21.6771 185.357 21.862 185.602 22.1172C185.846 22.3672 186.031 22.6953 186.156 23.1016C186.286 23.5026 186.352 23.9922 186.352 24.5703V30H184.461V24.5547C184.461 24.1484 184.401 23.8255 184.281 23.5859C184.167 23.3464 183.997 23.1745 183.773 23.0703C183.549 22.9609 183.276 22.9062 182.953 22.9062C182.615 22.9062 182.315 22.974 182.055 23.1094C181.799 23.2448 181.586 23.4297 181.414 23.6641C181.242 23.8984 181.112 24.1693 181.023 24.4766C180.94 24.7839 180.898 25.112 180.898 25.4609ZM190.773 18V30H188.883V18H190.773ZM197.062 30.1562C196.438 30.1562 195.872 30.0547 195.367 29.8516C194.867 29.6432 194.44 29.3542 194.086 28.9844C193.737 28.6146 193.469 28.1797 193.281 27.6797C193.094 27.1797 193 26.6406 193 26.0625V25.75C193 25.0885 193.096 24.4896 193.289 23.9531C193.482 23.4167 193.75 22.9583 194.094 22.5781C194.438 22.1927 194.844 21.8984 195.312 21.6953C195.781 21.4922 196.289 21.3906 196.836 21.3906C197.44 21.3906 197.969 21.4922 198.422 21.6953C198.875 21.8984 199.25 22.1849 199.547 22.5547C199.849 22.9193 200.073 23.3542 200.219 23.8594C200.37 24.3646 200.445 24.9219 200.445 25.5312V26.3359H193.914V24.9844H198.586V24.8359C198.576 24.4974 198.508 24.1797 198.383 23.8828C198.263 23.5859 198.078 23.3464 197.828 23.1641C197.578 22.9818 197.245 22.8906 196.828 22.8906C196.516 22.8906 196.237 22.9583 195.992 23.0938C195.753 23.224 195.552 23.4141 195.391 23.6641C195.229 23.9141 195.104 24.2161 195.016 24.5703C194.932 24.9193 194.891 25.3125 194.891 25.75V26.0625C194.891 26.4323 194.94 26.776 195.039 27.0938C195.143 27.4062 195.294 27.6797 195.492 27.9141C195.69 28.1484 195.93 28.3333 196.211 28.4688C196.492 28.599 196.812 28.6641 197.172 28.6641C197.625 28.6641 198.029 28.5729 198.383 28.3906C198.737 28.2083 199.044 27.9505 199.305 27.6172L200.297 28.5781C200.115 28.8438 199.878 29.099 199.586 29.3438C199.294 29.5833 198.938 29.7786 198.516 29.9297C198.099 30.0807 197.615 30.1562 197.062 30.1562ZM204.281 23.3516V30H202.398V21.5469H204.172L204.281 23.3516ZM203.945 25.4609L203.336 25.4531C203.341 24.8542 203.424 24.3047 203.586 23.8047C203.753 23.3047 203.982 22.875 204.273 22.5156C204.57 22.1562 204.924 21.8802 205.336 21.6875C205.747 21.4896 206.206 21.3906 206.711 21.3906C207.117 21.3906 207.484 21.4479 207.812 21.5625C208.146 21.6719 208.43 21.8516 208.664 22.1016C208.904 22.3516 209.086 22.6771 209.211 23.0781C209.336 23.474 209.398 23.9609 209.398 24.5391V30H207.508V24.5312C207.508 24.125 207.448 23.8047 207.328 23.5703C207.214 23.3307 207.044 23.1615 206.82 23.0625C206.602 22.9583 206.328 22.9062 206 22.9062C205.677 22.9062 205.388 22.974 205.133 23.1094C204.878 23.2448 204.661 23.4297 204.484 23.6641C204.312 23.8984 204.18 24.1693 204.086 24.4766C203.992 24.7839 203.945 25.112 203.945 25.4609Z" fill="white"/>
<defs>
<radialGradient id="paint0_radial_7364_5623" cx="0" cy="0" r="1" gradientUnits="userSpaceOnUse" gradientTransform="translate(23.3571 12.0411) scale(37.3344 46.3884)">
<stop stop-color="#FFCC00"/>
<stop offset="0.0915684" stop-color="#FFC800"/>
<stop offset="0.1739" stop-color="#FFBD00"/>
<stop offset="0.2528" stop-color="#FFAB00"/>
<stop offset="0.3295" stop-color="#FF9100"/>
<stop offset="0.4046" stop-color="#FF7000"/>
<stop offset="0.4786" stop-color="#FF4700"/>
<stop offset="0.5503" stop-color="#FF1800"/>
<stop offset="0.5822" stop-color="#FF0000"/>
<stop offset="1" stop-color="#FF0000"/>
</radialGradient>
<radialGradient id="paint1_radial_7364_5623" cx="0" cy="0" r="1" gradientUnits="userSpaceOnUse" gradientTransform="translate(23.6603 20.7117) scale(12.1684 12.1737)">
<stop stop-color="#00B4E6"/>
<stop offset="0.201" stop-color="#00B0E3"/>
<stop offset="0.3898" stop-color="#01A5DB"/>
<stop offset="0.5737" stop-color="#0292CD"/>
<stop offset="0.7546" stop-color="#0377BA"/>
<stop offset="0.9316" stop-color="#0455A1"/>
<stop offset="1" stop-color="#054696"/>
</radialGradient>
<clipPath id="clip0_7364_5623">
<rect width="33" height="34" fill="white" transform="translate(16 8)"/>
</clipPath>
</defs>
</svg>
